Motion_kv10_l
version=1
nRows=5
nColumns=43
inDegrees=yes
endheader
time	pelvis_tilt	pelvis_list	pelvis_rotation	pelvis_tx	pelvis_ty	pelvis_tz	hip_flexion_r	hip_adduction_r	hip_rotation_r	knee_angle_r	ankle_angle_r	subtalar_angle_r	mtp_angle_r	hip_flexion_l	hip_adduction_l	hip_rotation_l	knee_angle_l	ankle_angle_l	subtalar_angle_l	mtp_angle_l	lumbar_extension	lumbar_bending	lumbar_rotation	neck_flexion	neck_lateral_bending	neck_rotation	arm_flex_r	arm_add_r	arm_rot_r	elbow_flex_r	pro_sup_r	wrist_flex_r	wrist_dev_r	hand_finger_flex_r	arm_flex_l	arm_add_l	arm_rot_l	elbow_flex_l	pro_sup_l	wrist_flex_l	wrist_dev_l	hand_finger_flex_l
      1.44750000	      2.77113363	     11.68389532	     81.56163800	     -0.01066128	      1.16111122	      0.55453064	     10.49468121	     -1.64018946	     -7.82755084	    -15.79938073	    -19.24784479	      7.80948228	     -1.63729725	      9.10573888	     -8.92544179	    -15.33272467	    -13.50265946	    -27.76680636	      8.16508257	     13.65386327	    -28.34418397	      1.77726210	      6.89102958	    -36.05880731	      1.74185000	     -4.80573129	    -86.46447303	    -16.60567364	    -21.43795079	    118.53823246	    142.63525541	     20.62641653	     -4.05750854	     12.18957607	    -69.52864770	     -8.09785531	    -23.72411246	    108.08555296	    136.66553832	    -37.20771302	     -7.31467840	    -11.98607031
      1.45000000	      2.78312033	     11.75173834	     81.60514798	     -0.01066526	      1.15434637	      0.54937710	     10.24208644	     -1.62630328	     -7.87579908	    -15.61660029	    -19.04275694	      7.50603381	     -1.43643779	      8.90431093	     -8.88160183	    -15.09416781	    -13.62945931	    -27.65488596	      8.14266538	     13.68058686	    -28.08135275	      1.82492631	      6.86655655	    -36.44732799	      1.75891268	     -4.85501026	    -85.99470330	    -16.38212844	    -21.18580066	    117.87334370	    143.13939100	     20.73810422	     -3.93220333	     11.63807418	    -69.46251228	     -7.88476921	    -23.72110542	    107.70420696	    136.92700861	    -37.16898133	     -7.69610160	    -11.81618733
      1.45250000	      2.80893842	     11.85597138	     81.52486501	     -0.01087480	      1.14748829	      0.54466526	     10.14670628	     -1.65123638	     -7.91769240	    -15.73521632	    -19.01961948	      7.41514213	     -1.39610353	      8.73705183	     -8.86359338	    -14.99268483	    -13.90445165	    -27.63326052	      8.12904281	     13.68937270	    -27.95335814	      1.87544135	      6.89777729	    -36.55593700	      1.64230070	     -4.84260772	    -85.50186661	    -16.23709428	    -21.13166868	    117.24787693	    143.30011745	     20.75352842	     -3.83067233	     11.51435877	    -69.32131875	     -7.65701392	    -23.58224861	    107.37226248	    136.95657139	    -37.10225357	     -7.70513217	    -11.77070819
      1.45500000	      2.97139407	     11.76993376	     81.87262997	     -0.01108165	      1.14025443	      0.53954964	     10.05471357	     -1.49831666	     -8.48350785	    -15.61850379	    -19.58074981	      6.58238963	      0.61616375	      8.97886297	     -8.95777225	    -13.97923859	    -14.45432095	    -27.28348103	      7.58008944	     13.65191590	    -27.55084914	      2.22778686	      6.60570171	    -37.06409760	      1.50474844	     -4.82003245	    -84.94628456	    -15.92980879	    -21.19156657	    116.71495116	    145.25926640	     22.95490289	     -4.94255936	      6.91670287	    -69.10613942	     -7.37922706	    -23.64373318	    106.76340167	    137.33953514	    -37.84807479	     -8.39487833	    -10.17026828
      1.45750000	      2.95981037	     11.90047018	     81.79995832	     -0.01104490	      1.13348585	      0.53494639	      9.97282472	     -1.56050613	     -8.61101777	    -15.83672839	    -19.65981753	      6.43512447	      0.63304281	      8.79948158	     -8.91909936	    -13.94677436	    -14.78243458	    -27.26393461	      7.57848674	     13.65983218	    -27.46770176	      2.20956549	      6.67554477	    -37.16086434	      1.45615137	     -4.87913590	    -84.28720007	    -15.73972204	    -21.00335043	    115.99181159	    145.40641147	     22.98327967	     -4.71541529	      6.81423236	    -68.78011077	     -7.26923408	    -23.50735377	    106.31866276	    137.41315799	    -37.77928885	     -8.42146061	    -10.13620952
